<svg xmlns="http://www.w3.org/2000/svg" width="65" height="40" viewBox="0 0 65 40">
  <path fill="#BCA262" fill-rule="evenodd" d="M0.55,24.9993164 L11.257903,24.9999871 C12.9869483,27.9890011 16.2186714,30 19.9200885,30 C25.442936,30 29.9200885,25.5228475 29.9200885,20 C29.9200885,14.4771525 25.442936,10 19.9200885,10 C16.2190838,10 12.9876684,12.0105509 11.258481,14.9990139 L0.55,14.9996789 C2.77058424,6.37370575 10.601007,0 19.9200885,0 C27.3226507,0 33.785894,4.02170227 37.2440783,9.99936676 L64.9970062,10 L64.9970062,30 L37.2446562,29.9996342 C33.7866141,35.9778496 27.3230631,40 19.9200885,40 C10.6006452,40 2.76997619,33.6257993 0.55,24.9993164 Z"/>
</svg>
